<svg width="400" height="400" viewBox="0 0 400 400" fill="none" xmlns="http://www.w3.org/2000/svg">
<rect width="400" height="400" rx="96" fill="white"/>
<path d="M322.251 235.8C319.251 235.8 316.784 234.933 314.851 233.2C312.984 231.4 312.051 229.2 312.051 226.6C312.051 223.933 312.984 221.7 314.851 219.9C316.784 218.1 319.251 217.2 322.251 217.2C325.184 217.2 327.584 218.1 329.451 219.9C331.384 221.7 332.351 223.933 332.351 226.6C332.351 229.2 331.384 231.4 329.451 233.2C327.584 234.933 325.184 235.8 322.251 235.8Z" fill="#3232A0"/>
<path d="M244.98 207.2C244.98 201.667 246.113 196.733 248.38 192.4C250.713 188.067 253.813 184.7 257.68 182.3C261.613 179.833 265.88 178.6 270.48 178.6C274.013 178.6 277.18 179.233 279.98 180.5C282.78 181.7 285.046 183.4 286.78 185.6V179.2H303.88V261.6H286.78V228C284.846 230.333 282.48 232.2 279.68 233.6C276.946 235 273.813 235.7 270.28 235.7C265.746 235.7 261.546 234.5 257.68 232.1C253.813 229.7 250.713 226.333 248.38 222C246.113 217.667 244.98 212.733 244.98 207.2ZM286.78 207.1C286.78 204.1 286.18 201.6 284.98 199.6C283.846 197.533 282.346 196 280.48 195C278.613 193.933 276.646 193.4 274.58 193.4C272.58 193.4 270.646 193.933 268.78 195C266.913 196 265.38 197.533 264.18 199.6C262.98 201.667 262.38 204.2 262.38 207.2C262.38 210.2 262.98 212.733 264.18 214.8C265.38 216.8 266.913 218.333 268.78 219.4C270.646 220.4 272.58 220.9 274.58 220.9C276.58 220.9 278.513 220.4 280.38 219.4C282.313 218.333 283.846 216.767 284.98 214.7C286.18 212.633 286.78 210.1 286.78 207.1Z" fill="#3232A0"/>
<path d="M240.855 220.5V235H232.155C225.955 235 221.121 233.5 217.655 230.5C214.188 227.433 212.455 222.467 212.455 215.6V193.4H205.655V179.2H212.455V165.6H229.555V179.2H240.755V193.4H229.555V215.8C229.555 217.467 229.955 218.667 230.755 219.4C231.555 220.133 232.888 220.5 234.755 220.5H240.855Z" fill="#3232A0"/>
<path d="M178.672 178.6C185.072 178.6 190.205 180.733 194.072 185C197.938 189.2 199.872 195 199.872 202.4V235H182.872V204.7C182.872 200.967 181.905 198.067 179.972 196C178.038 193.933 175.438 192.9 172.172 192.9C168.905 192.9 166.305 193.933 164.372 196C162.438 198.067 161.472 200.967 161.472 204.7V235H144.372V161H161.472V186.7C163.205 184.233 165.572 182.267 168.572 180.8C171.572 179.333 174.938 178.6 178.672 178.6Z" fill="#3232A0"/>
<path d="M67.3 199.8C67.3 192.867 68.8 186.7 71.8 181.3C74.8 175.833 78.9667 171.6 84.3001 168.6C89.7001 165.533 95.8001 164 102.6 164C110.933 164 118.067 166.2 124 170.6C129.933 175 133.9 181 135.9 188.6H117.1C115.7 185.667 113.7 183.433 111.1 181.9C108.567 180.367 105.667 179.6 102.4 179.6C97.1334 179.6 92.8667 181.433 89.6 185.1C86.3334 188.767 84.7001 193.667 84.7001 199.8C84.7001 205.933 86.3334 210.833 89.6 214.5C92.8667 218.167 97.1334 220 102.4 220C105.667 220 108.567 219.233 111.1 217.7C113.7 216.167 115.7 213.933 117.1 211H135.9C133.9 218.6 129.933 224.6 124 229C118.067 233.333 110.933 235.5 102.6 235.5C95.8001 235.5 89.7001 234 84.3001 231C78.9667 227.933 74.8 223.7 71.8 218.3C68.8 212.9 67.3 206.733 67.3 199.8Z" fill="#3232A0"/>
</svg>
